<svg width="725" height="720" viewBox="0 0 725 720" fill="none" xmlns="http://www.w3.org/2000/svg">
<path d="M577.583 512.542V620.339C577.583 623.729 579.278 625.424 582.667 625.424H623.333C626.722 625.424 628.417 623.729 628.417 620.339V437.288L548.1 401.695C542 399.661 533.528 396.271 522.683 391.525C511.839 386.102 502.011 378.305 493.2 368.136C485.067 357.966 481 344.068 481 326.441V94.5763C481 66.1017 489.811 43.3898 507.433 26.4407C525.056 8.81356 548.1 0 576.567 0H629.433C657.9 0 680.944 8.81356 698.567 26.4407C716.189 43.3898 725 66.1017 725 94.5763V245.085L628.417 236.949V99.6611C628.417 96.2712 626.722 94.5763 623.333 94.5763H582.667C579.278 94.5763 577.583 96.2712 577.583 99.6611V312.203L657.9 347.797C664 350.509 672.472 354.237 683.317 358.983C694.161 363.729 703.65 371.186 711.783 381.356C720.594 391.525 725 405.424 725 423.051V625.424C725 653.898 716.189 676.949 698.567 694.576C680.944 711.525 657.9 720 629.433 720H576.567C548.1 720 525.056 711.525 507.433 694.576C489.811 676.949 481 653.898 481 625.424V512.542H577.583Z" fill="black"/>
<path d="M0 0V658L201 307.435H342C418.768 307.435 481 238.614 481 153.718C481 68.8217 418.768 0 342 0H0Z" fill="black"/>
</svg>
